<?xml version="1.0" encoding="UTF-8" standalone="no"?>
<!DOCTYPE svg PUBLIC "-//W3C//DTD SVG 1.1//EN"
 "http://www.w3.org/Graphics/SVG/1.1/DTD/svg11.dtd">
<!-- Generated by graphviz version 2.38.0 (20140413.2041)
 -->
<!-- Title: R Pages: 1 -->
<svg width="1624pt" height="511pt"
 viewBox="0.00 0.00 1624.00 511.00" xmlns="http://www.w3.org/2000/svg" xmlns:xlink="http://www.w3.org/1999/xlink">
<g id="graph0" class="graph" transform="scale(1 1) rotate(0) translate(4 507)">
<title>R</title>
<polygon fill="white" stroke="none" points="-4,4 -4,-507 1620,-507 1620,4 -4,4"/>
<!-- print -->
<g id="node1" class="node"><title>print</title>
<polygon fill="none" stroke="black" points="0,-433.5 0,-479.5 152,-479.5 152,-433.5 0,-433.5"/>
<text text-anchor="middle" x="76" y="-464.3" font-family="Times New Roman,serif" font-size="14.00">print</text>
<polyline fill="none" stroke="black" points="0,-456.5 152,-456.5 "/>
<text text-anchor="middle" x="76" y="-441.3" font-family="Times New Roman,serif" font-size="14.00">Precompiled Statements</text>
</g>
<!-- read -->
<g id="node2" class="node"><title>read</title>
<polygon fill="none" stroke="black" points="170,-433.5 170,-479.5 322,-479.5 322,-433.5 170,-433.5"/>
<text text-anchor="middle" x="246" y="-464.3" font-family="Times New Roman,serif" font-size="14.00">read</text>
<polyline fill="none" stroke="black" points="170,-456.5 322,-456.5 "/>
<text text-anchor="middle" x="246" y="-441.3" font-family="Times New Roman,serif" font-size="14.00">Precompiled Statements</text>
</g>
<!-- write -->
<g id="node3" class="node"><title>write</title>
<polygon fill="none" stroke="black" points="340,-433.5 340,-479.5 492,-479.5 492,-433.5 340,-433.5"/>
<text text-anchor="middle" x="416" y="-464.3" font-family="Times New Roman,serif" font-size="14.00">write</text>
<polyline fill="none" stroke="black" points="340,-456.5 492,-456.5 "/>
<text text-anchor="middle" x="416" y="-441.3" font-family="Times New Roman,serif" font-size="14.00">Precompiled Statements</text>
</g>
<!-- root -->
<g id="node4" class="node"><title>root</title>
<polygon fill="none" stroke="black" points="510,-410.5 510,-502.5 720,-502.5 720,-410.5 510,-410.5"/>
<text text-anchor="middle" x="615" y="-487.3" font-family="Times New Roman,serif" font-size="14.00">root</text>
<polyline fill="none" stroke="black" points="510,-479.5 720,-479.5 "/>
<text text-anchor="middle" x="615" y="-464.3" font-family="Times New Roman,serif" font-size="14.00">Enter StackFrame</text>
<polyline fill="none" stroke="black" points="510,-456.5 720,-456.5 "/>
<text text-anchor="middle" x="615" y="-441.3" font-family="Times New Roman,serif" font-size="14.00">n:NUMBER &lt;= $1 MOV $1</text>
<polyline fill="none" stroke="black" points="510,-433.5 720,-433.5 "/>
<text text-anchor="middle" x="615" y="-418.3" font-family="Times New Roman,serif" font-size="14.00">!for0:NUMBER &lt;= $16 MOV $16</text>
</g>
<!-- blk6 -->
<g id="node5" class="node"><title>blk6</title>
<polygon fill="none" stroke="black" points="459,-304.5 459,-373.5 771,-373.5 771,-304.5 459,-304.5"/>
<text text-anchor="middle" x="615" y="-358.3" font-family="Times New Roman,serif" font-size="14.00">blk6</text>
<polyline fill="none" stroke="black" points="459,-350.5 771,-350.5 "/>
<text text-anchor="middle" x="615" y="-335.3" font-family="Times New Roman,serif" font-size="14.00">t6:BOOL &lt;= n:NUMBER LEQUAL !for0:NUMBER</text>
<polyline fill="none" stroke="black" points="459,-327.5 771,-327.5 "/>
<text text-anchor="middle" x="615" y="-312.3" font-family="Times New Roman,serif" font-size="14.00">t6:BOOL TEST t6:BOOL</text>
</g>
<!-- root&#45;&gt;blk6 -->
<g id="edge1" class="edge"><title>root&#45;&gt;blk6</title>
<path fill="none" stroke="black" d="M615,-410.183C615,-401.556 615,-392.541 615,-383.957"/>
<polygon fill="black" stroke="black" points="618.5,-383.757 615,-373.757 611.5,-383.757 618.5,-383.757"/>
</g>
<!-- blk7 -->
<g id="node6" class="node"><title>blk7</title>
<polygon fill="none" stroke="black" points="440,-129.5 440,-244.5 790,-244.5 790,-129.5 440,-129.5"/>
<text text-anchor="middle" x="615" y="-229.3" font-family="Times New Roman,serif" font-size="14.00">blk7</text>
<polyline fill="none" stroke="black" points="440,-221.5 790,-221.5 "/>
<text text-anchor="middle" x="615" y="-206.3" font-family="Times New Roman,serif" font-size="14.00">t7:NUMBER &lt;= fibonacci:FUNCTION CALL n:NUMBER</text>
<polyline fill="none" stroke="black" points="440,-198.5 790,-198.5 "/>
<text text-anchor="middle" x="615" y="-183.3" font-family="Times New Roman,serif" font-size="14.00">t8:NUMBER &lt;= write:FUNCTION CALL :TABLE</text>
<polyline fill="none" stroke="black" points="440,-175.5 790,-175.5 "/>
<text text-anchor="middle" x="615" y="-160.3" font-family="Times New Roman,serif" font-size="14.00">t9:NUMBER &lt;= n:NUMBER ADD $1</text>
<polyline fill="none" stroke="black" points="440,-152.5 790,-152.5 "/>
<text text-anchor="middle" x="615" y="-137.3" font-family="Times New Roman,serif" font-size="14.00">n:NUMBER &lt;= t9:NUMBER MOV t9:NUMBER</text>
</g>
<!-- blk6&#45;&gt;blk7 -->
<g id="edge2" class="edge"><title>blk6&#45;&gt;blk7</title>
<path fill="none" stroke="black" d="M609.259,-304.337C608.456,-289.607 608.132,-271.783 608.288,-254.561"/>
<polygon fill="black" stroke="black" points="611.788,-254.569 608.436,-244.518 604.789,-254.466 611.788,-254.569"/>
</g>
<!-- blk8 -->
<g id="node7" class="node"><title>blk8</title>
<polygon fill="none" stroke="black" points="808,-164 808,-210 1148,-210 1148,-164 808,-164"/>
<text text-anchor="middle" x="978" y="-194.8" font-family="Times New Roman,serif" font-size="14.00">blk8</text>
<polyline fill="none" stroke="black" points="808,-187 1148,-187 "/>
<text text-anchor="middle" x="978" y="-171.8" font-family="Times New Roman,serif" font-size="14.00">t10:NUMBER &lt;= write:FUNCTION CALL str1:STRING</text>
</g>
<!-- blk6&#45;&gt;blk8 -->
<g id="edge3" class="edge"><title>blk6&#45;&gt;blk8</title>
<path fill="none" stroke="black" d="M706.184,-304.48C735.918,-293.239 768.993,-280.402 799,-268 840.295,-250.933 886.305,-230.334 921.338,-214.313"/>
<polygon fill="black" stroke="black" points="922.823,-217.482 930.455,-210.134 919.906,-211.119 922.823,-217.482"/>
</g>
<!-- blk7&#45;&gt;blk6 -->
<g id="edge4" class="edge"><title>blk7&#45;&gt;blk6</title>
<path fill="none" stroke="black" d="M621.564,-244.518C621.899,-260.89 621.781,-278.515 621.209,-294"/>
<polygon fill="black" stroke="black" points="617.697,-294.189 620.741,-304.337 624.69,-294.506 617.697,-294.189"/>
</g>
<!-- blk0 -->
<g id="node13" class="node"><title>blk0</title>
<polygon fill="none" stroke="black" points="918,-12 918,-58 1038,-58 1038,-12 918,-12"/>
<text text-anchor="middle" x="978" y="-42.8" font-family="Times New Roman,serif" font-size="14.00">blk0</text>
<polyline fill="none" stroke="black" points="918,-35 1038,-35 "/>
<text text-anchor="middle" x="978" y="-19.8" font-family="Times New Roman,serif" font-size="14.00">Leave StackFrame</text>
</g>
<!-- blk8&#45;&gt;blk0 -->
<g id="edge9" class="edge"><title>blk8&#45;&gt;blk0</title>
<path fill="none" stroke="black" d="M978,-163.867C978,-138.609 978,-97.0744 978,-68.225"/>
<polygon fill="black" stroke="black" points="981.5,-68.2238 978,-58.2238 974.5,-68.2239 981.5,-68.2238"/>
</g>
<!-- fibonacci -->
<g id="node8" class="node"><title>fibonacci</title>
<polygon fill="none" stroke="black" points="1231,-422 1231,-491 1413,-491 1413,-422 1231,-422"/>
<text text-anchor="middle" x="1322" y="-475.8" font-family="Times New Roman,serif" font-size="14.00">fibonacci</text>
<polyline fill="none" stroke="black" points="1231,-468 1413,-468 "/>
<text text-anchor="middle" x="1322" y="-452.8" font-family="Times New Roman,serif" font-size="14.00">Enter StackFrame</text>
<polyline fill="none" stroke="black" points="1231,-445 1413,-445 "/>
<text text-anchor="middle" x="1322" y="-429.8" font-family="Times New Roman,serif" font-size="14.00">:TABLE CALLINIT :TABLE</text>
</g>
<!-- blk1 -->
<g id="node9" class="node"><title>blk1</title>
<polygon fill="none" stroke="black" points="1214.5,-304.5 1214.5,-373.5 1429.5,-373.5 1429.5,-304.5 1214.5,-304.5"/>
<text text-anchor="middle" x="1322" y="-358.3" font-family="Times New Roman,serif" font-size="14.00">blk1</text>
<polyline fill="none" stroke="black" points="1214.5,-350.5 1429.5,-350.5 "/>
<text text-anchor="middle" x="1322" y="-335.3" font-family="Times New Roman,serif" font-size="14.00">t0:BOOL &lt;= n:NUMBER LESS $3</text>
<polyline fill="none" stroke="black" points="1214.5,-327.5 1429.5,-327.5 "/>
<text text-anchor="middle" x="1322" y="-312.3" font-family="Times New Roman,serif" font-size="14.00">t0:BOOL TEST t0:BOOL</text>
</g>
<!-- fibonacci&#45;&gt;blk1 -->
<g id="edge5" class="edge"><title>fibonacci&#45;&gt;blk1</title>
<path fill="none" stroke="black" d="M1322,-421.782C1322,-409.922 1322,-396.415 1322,-383.844"/>
<polygon fill="black" stroke="black" points="1325.5,-383.56 1322,-373.56 1318.5,-383.56 1325.5,-383.56"/>
</g>
<!-- blk4 -->
<g id="node10" class="node"><title>blk4</title>
<polygon fill="none" stroke="black" points="1166,-164 1166,-210 1244,-210 1244,-164 1166,-164"/>
<text text-anchor="middle" x="1205" y="-194.8" font-family="Times New Roman,serif" font-size="14.00">blk4</text>
<polyline fill="none" stroke="black" points="1166,-187 1244,-187 "/>
<text text-anchor="middle" x="1205" y="-171.8" font-family="Times New Roman,serif" font-size="14.00">$1 RET $1</text>
</g>
<!-- blk1&#45;&gt;blk4 -->
<g id="edge6" class="edge"><title>blk1&#45;&gt;blk4</title>
<path fill="none" stroke="black" d="M1285.53,-304.258C1274.49,-293.212 1262.72,-280.544 1253,-268 1241.25,-252.839 1230.1,-234.586 1221.51,-219.345"/>
<polygon fill="black" stroke="black" points="1224.41,-217.358 1216.51,-210.3 1218.28,-220.745 1224.41,-217.358"/>
</g>
<!-- blk5 -->
<g id="node11" class="node"><title>blk5</title>
<polygon fill="none" stroke="black" points="1262,-106.5 1262,-267.5 1616,-267.5 1616,-106.5 1262,-106.5"/>
<text text-anchor="middle" x="1439" y="-252.3" font-family="Times New Roman,serif" font-size="14.00">blk5</text>
<polyline fill="none" stroke="black" points="1262,-244.5 1616,-244.5 "/>
<text text-anchor="middle" x="1439" y="-229.3" font-family="Times New Roman,serif" font-size="14.00">t1:NUMBER &lt;= n:NUMBER SUB $1</text>
<polyline fill="none" stroke="black" points="1262,-221.5 1616,-221.5 "/>
<text text-anchor="middle" x="1439" y="-206.3" font-family="Times New Roman,serif" font-size="14.00">t2:NUMBER &lt;= fibonacci:FUNCTION CALL t1:NUMBER</text>
<polyline fill="none" stroke="black" points="1262,-198.5 1616,-198.5 "/>
<text text-anchor="middle" x="1439" y="-183.3" font-family="Times New Roman,serif" font-size="14.00">t3:NUMBER &lt;= n:NUMBER SUB $2</text>
<polyline fill="none" stroke="black" points="1262,-175.5 1616,-175.5 "/>
<text text-anchor="middle" x="1439" y="-160.3" font-family="Times New Roman,serif" font-size="14.00">t4:NUMBER &lt;= fibonacci:FUNCTION CALL t3:NUMBER</text>
<polyline fill="none" stroke="black" points="1262,-152.5 1616,-152.5 "/>
<text text-anchor="middle" x="1439" y="-137.3" font-family="Times New Roman,serif" font-size="14.00">t5:NUMBER &lt;= t2:NUMBER ADD t4:NUMBER</text>
<polyline fill="none" stroke="black" points="1262,-129.5 1616,-129.5 "/>
<text text-anchor="middle" x="1439" y="-114.3" font-family="Times New Roman,serif" font-size="14.00">t5:NUMBER RET t5:NUMBER</text>
</g>
<!-- blk1&#45;&gt;blk5 -->
<g id="edge7" class="edge"><title>blk1&#45;&gt;blk5</title>
<path fill="none" stroke="black" d="M1348.26,-304.337C1355.06,-295.613 1362.71,-285.804 1370.61,-275.677"/>
<polygon fill="black" stroke="black" points="1373.6,-277.54 1376.99,-267.502 1368.08,-273.234 1373.6,-277.54"/>
</g>
<!-- blk2 -->
<g id="node12" class="node"><title>blk2</title>
<polygon fill="none" stroke="black" points="1246,-0.5 1246,-69.5 1398,-69.5 1398,-0.5 1246,-0.5"/>
<text text-anchor="middle" x="1322" y="-54.3" font-family="Times New Roman,serif" font-size="14.00">blk2</text>
<polyline fill="none" stroke="black" points="1246,-46.5 1398,-46.5 "/>
<text text-anchor="middle" x="1322" y="-31.3" font-family="Times New Roman,serif" font-size="14.00">Leave StackFrame</text>
<polyline fill="none" stroke="black" points="1246,-23.5 1398,-23.5 "/>
<text text-anchor="middle" x="1322" y="-8.3" font-family="Times New Roman,serif" font-size="14.00">Precompiled Statements</text>
</g>
<!-- blk4&#45;&gt;blk2 -->
<g id="edge8" class="edge"><title>blk4&#45;&gt;blk2</title>
<path fill="none" stroke="black" d="M1216.51,-163.7C1225.5,-147.124 1238.81,-124.307 1253,-106 1260.67,-96.1022 1269.61,-86.127 1278.47,-76.9321"/>
<polygon fill="black" stroke="black" points="1281.02,-79.3303 1285.53,-69.7416 1276.02,-74.4271 1281.02,-79.3303"/>
</g>
<!-- blk5&#45;&gt;blk2 -->
<g id="edge10" class="edge"><title>blk5&#45;&gt;blk2</title>
<path fill="none" stroke="black" d="M1376.73,-106.169C1369.04,-96.3126 1361.44,-86.5679 1354.46,-77.6196"/>
<polygon fill="black" stroke="black" points="1357.15,-75.3778 1348.24,-69.6454 1351.63,-79.6831 1357.15,-75.3778"/>
</g>
</g>
</svg>
