<?xml version="1.0" encoding="UTF-8" standalone="no"?>
<!DOCTYPE svg PUBLIC "-//W3C//DTD SVG 1.1//EN"
 "http://www.w3.org/Graphics/SVG/1.1/DTD/svg11.dtd">
<!-- Generated by graphviz version 2.38.0 (20140413.2041)
 -->
<!-- Title: %3 Pages: 1 -->
<svg width="2239pt" height="1139pt"
 viewBox="0.00 0.00 2239.16 1138.62" xmlns="http://www.w3.org/2000/svg" xmlns:xlink="http://www.w3.org/1999/xlink">
<g id="graph0" class="graph" transform="scale(1 1) rotate(0) translate(4 1134.62)">
<title>%3</title>
<polygon fill="white" stroke="none" points="-4,4 -4,-1134.62 2235.16,-1134.62 2235.16,4 -4,4"/>
<!-- node0 -->
<g id="node1" class="node"><title>node0</title>
<ellipse fill="none" stroke="black" cx="1258.17" cy="-1103.75" rx="56.6372" ry="26.7407"/>
<text text-anchor="middle" x="1258.17" y="-1107.55" font-family="Times,serif" font-size="14.00">Chunk</text>
<text text-anchor="middle" x="1258.17" y="-1092.55" font-family="Times,serif" font-size="14.00">(Statement)</text>
</g>
<!-- node1 -->
<g id="node2" class="node"><title>node1</title>
<ellipse fill="none" stroke="black" cx="629.167" cy="-1014.01" rx="111.032" ry="26.7407"/>
<text text-anchor="middle" x="629.167" y="-1017.81" font-family="Times,serif" font-size="14.00">GlobalFunctionDefinition</text>
<text text-anchor="middle" x="629.167" y="-1002.81" font-family="Times,serif" font-size="14.00">(Statement)</text>
</g>
<!-- node0&#45;&gt;node1 -->
<g id="edge1" class="edge"><title>node0&#45;&gt;node1</title>
<path fill="none" stroke="black" d="M1204.27,-1095.23C1099.98,-1080.69 868.99,-1048.46 733.624,-1029.58"/>
<polygon fill="black" stroke="black" points="734.032,-1026.11 723.645,-1028.19 733.065,-1033.04 734.032,-1026.11"/>
</g>
<!-- node31 -->
<g id="node32" class="node"><title>node31</title>
<ellipse fill="none" stroke="black" cx="1258.17" cy="-1014.01" rx="90.5193" ry="26.7407"/>
<text text-anchor="middle" x="1258.17" y="-1017.81" font-family="Times,serif" font-size="14.00">ForLoop</text>
<text text-anchor="middle" x="1258.17" y="-1002.81" font-family="Times,serif" font-size="14.00">(Statement) Name:n</text>
</g>
<!-- node0&#45;&gt;node31 -->
<g id="edge31" class="edge"><title>node0&#45;&gt;node31</title>
<path fill="none" stroke="black" d="M1258.17,-1076.43C1258.17,-1068.46 1258.17,-1059.57 1258.17,-1051.08"/>
<polygon fill="black" stroke="black" points="1261.67,-1051.02 1258.17,-1041.02 1254.67,-1051.02 1261.67,-1051.02"/>
</g>
<!-- node47 -->
<g id="node48" class="node"><title>node47</title>
<ellipse fill="none" stroke="black" cx="1722.17" cy="-1014.01" rx="69.0935" ry="26.7407"/>
<text text-anchor="middle" x="1722.17" y="-1017.81" font-family="Times,serif" font-size="14.00">ExprStatement</text>
<text text-anchor="middle" x="1722.17" y="-1002.81" font-family="Times,serif" font-size="14.00">(Statement)</text>
</g>
<!-- node0&#45;&gt;node47 -->
<g id="edge47" class="edge"><title>node0&#45;&gt;node47</title>
<path fill="none" stroke="black" d="M1310.04,-1092.94C1393.21,-1077.22 1556.57,-1046.32 1650.72,-1028.52"/>
<polygon fill="black" stroke="black" points="1651.55,-1031.93 1660.72,-1026.63 1650.25,-1025.05 1651.55,-1031.93"/>
</g>
<!-- node2 -->
<g id="node3" class="node"><title>node2</title>
<ellipse fill="none" stroke="black" cx="466.167" cy="-924.271" rx="65.1077" ry="26.7407"/>
<text text-anchor="middle" x="466.167" y="-928.071" font-family="Times,serif" font-size="14.00">NameListList</text>
<text text-anchor="middle" x="466.167" y="-913.071" font-family="Times,serif" font-size="14.00">(Helper)</text>
</g>
<!-- node1&#45;&gt;node2 -->
<g id="edge2" class="edge"><title>node1&#45;&gt;node2</title>
<path fill="none" stroke="black" d="M585.056,-989.268C563.014,-977.403 536.313,-963.03 513.803,-950.913"/>
<polygon fill="black" stroke="black" points="515.226,-947.704 504.761,-946.046 511.908,-953.868 515.226,-947.704"/>
</g>
<!-- node4 -->
<g id="node5" class="node"><title>node4</title>
<ellipse fill="none" stroke="black" cx="629.167" cy="-924.271" rx="66.4361" ry="26.7407"/>
<text text-anchor="middle" x="629.167" y="-928.071" font-family="Times,serif" font-size="14.00">FunctionBody</text>
<text text-anchor="middle" x="629.167" y="-913.071" font-family="Times,serif" font-size="14.00">(Expression)</text>
</g>
<!-- node1&#45;&gt;node4 -->
<g id="edge4" class="edge"><title>node1&#45;&gt;node4</title>
<path fill="none" stroke="black" d="M629.167,-986.686C629.167,-978.72 629.167,-969.829 629.167,-961.34"/>
<polygon fill="black" stroke="black" points="632.667,-961.275 629.167,-951.275 625.667,-961.275 632.667,-961.275"/>
</g>
<!-- node3 -->
<g id="node4" class="node"><title>node3</title>
<ellipse fill="none" stroke="black" cx="441.167" cy="-834.531" rx="126.644" ry="26.7407"/>
<text text-anchor="middle" x="441.167" y="-838.331" font-family="Times,serif" font-size="14.00">StringLiteral</text>
<text text-anchor="middle" x="441.167" y="-823.331" font-family="Times,serif" font-size="14.00">(Expression) Value: fibonacci</text>
</g>
<!-- node2&#45;&gt;node3 -->
<g id="edge3" class="edge"><title>node2&#45;&gt;node3</title>
<path fill="none" stroke="black" d="M458.801,-897.421C456.457,-889.194 453.821,-879.944 451.316,-871.152"/>
<polygon fill="black" stroke="black" points="454.672,-870.158 448.566,-861.5 447.94,-872.076 454.672,-870.158"/>
</g>
<!-- node5 -->
<g id="node6" class="node"><title>node5</title>
<ellipse fill="none" stroke="black" cx="642.167" cy="-834.531" rx="56.6372" ry="26.7407"/>
<text text-anchor="middle" x="642.167" y="-838.331" font-family="Times,serif" font-size="14.00">Chunk</text>
<text text-anchor="middle" x="642.167" y="-823.331" font-family="Times,serif" font-size="14.00">(Statement)</text>
</g>
<!-- node4&#45;&gt;node5 -->
<g id="edge5" class="edge"><title>node4&#45;&gt;node5</title>
<path fill="none" stroke="black" d="M632.997,-897.421C634.202,-889.282 635.557,-880.143 636.847,-871.436"/>
<polygon fill="black" stroke="black" points="640.315,-871.905 638.319,-861.5 633.391,-870.879 640.315,-871.905"/>
</g>
<!-- node6 -->
<g id="node7" class="node"><title>node6</title>
<ellipse fill="none" stroke="black" cx="642.167" cy="-744.791" rx="56.6372" ry="26.7407"/>
<text text-anchor="middle" x="642.167" y="-748.591" font-family="Times,serif" font-size="14.00">Selector</text>
<text text-anchor="middle" x="642.167" y="-733.591" font-family="Times,serif" font-size="14.00">(Statement)</text>
</g>
<!-- node5&#45;&gt;node6 -->
<g id="edge6" class="edge"><title>node5&#45;&gt;node6</title>
<path fill="none" stroke="black" d="M642.167,-807.206C642.167,-799.239 642.167,-790.348 642.167,-781.86"/>
<polygon fill="black" stroke="black" points="645.667,-781.795 642.167,-771.795 638.667,-781.795 645.667,-781.795"/>
</g>
<!-- node7 -->
<g id="node8" class="node"><title>node7</title>
<ellipse fill="none" stroke="black" cx="539.167" cy="-655.051" rx="56.6372" ry="26.7407"/>
<text text-anchor="middle" x="539.167" y="-658.851" font-family="Times,serif" font-size="14.00">If/ElseIf</text>
<text text-anchor="middle" x="539.167" y="-643.851" font-family="Times,serif" font-size="14.00">(Statement)</text>
</g>
<!-- node6&#45;&gt;node7 -->
<g id="edge7" class="edge"><title>node6&#45;&gt;node7</title>
<path fill="none" stroke="black" d="M615.373,-720.967C602.618,-710.101 587.212,-696.978 573.599,-685.382"/>
<polygon fill="black" stroke="black" points="575.708,-682.581 565.826,-678.76 571.168,-687.909 575.708,-682.581"/>
</g>
<!-- node15 -->
<g id="node16" class="node"><title>node15</title>
<ellipse fill="none" stroke="black" cx="673.167" cy="-655.051" rx="56.6372" ry="26.7407"/>
<text text-anchor="middle" x="673.167" y="-658.851" font-family="Times,serif" font-size="14.00">Chunk</text>
<text text-anchor="middle" x="673.167" y="-643.851" font-family="Times,serif" font-size="14.00">(Statement)</text>
</g>
<!-- node6&#45;&gt;node15 -->
<g id="edge15" class="edge"><title>node6&#45;&gt;node15</title>
<path fill="none" stroke="black" d="M651.3,-717.941C654.264,-709.551 657.604,-700.097 660.765,-691.151"/>
<polygon fill="black" stroke="black" points="664.067,-692.311 664.098,-681.716 657.467,-689.979 664.067,-692.311"/>
</g>
<!-- node8 -->
<g id="node9" class="node"><title>node8</title>
<ellipse fill="none" stroke="black" cx="337.167" cy="-565.311" rx="89.191" ry="26.7407"/>
<text text-anchor="middle" x="337.167" y="-569.111" font-family="Times,serif" font-size="14.00">Comparator</text>
<text text-anchor="middle" x="337.167" y="-554.111" font-family="Times,serif" font-size="14.00">(Statement) Type: 2</text>
</g>
<!-- node7&#45;&gt;node8 -->
<g id="edge8" class="edge"><title>node7&#45;&gt;node8</title>
<path fill="none" stroke="black" d="M498.289,-636.295C468.91,-623.534 428.859,-606.138 396.04,-591.883"/>
<polygon fill="black" stroke="black" points="397.116,-588.534 386.549,-587.76 394.327,-594.955 397.116,-588.534"/>
</g>
<!-- node11 -->
<g id="node12" class="node"><title>node11</title>
<ellipse fill="none" stroke="black" cx="539.167" cy="-565.311" rx="56.6372" ry="26.7407"/>
<text text-anchor="middle" x="539.167" y="-569.111" font-family="Times,serif" font-size="14.00">Chunk</text>
<text text-anchor="middle" x="539.167" y="-554.111" font-family="Times,serif" font-size="14.00">(Statement)</text>
</g>
<!-- node7&#45;&gt;node11 -->
<g id="edge11" class="edge"><title>node7&#45;&gt;node11</title>
<path fill="none" stroke="black" d="M539.167,-627.726C539.167,-619.759 539.167,-610.868 539.167,-602.38"/>
<polygon fill="black" stroke="black" points="542.667,-602.315 539.167,-592.315 535.667,-602.315 542.667,-602.315"/>
</g>
<!-- node9 -->
<g id="node10" class="node"><title>node9</title>
<ellipse fill="none" stroke="black" cx="96.1665" cy="-475.571" rx="96.3333" ry="26.7407"/>
<text text-anchor="middle" x="96.1665" y="-479.371" font-family="Times,serif" font-size="14.00">VarName</text>
<text text-anchor="middle" x="96.1665" y="-464.371" font-family="Times,serif" font-size="14.00">(Expression) Value: n</text>
</g>
<!-- node8&#45;&gt;node9 -->
<g id="edge9" class="edge"><title>node8&#45;&gt;node9</title>
<path fill="none" stroke="black" d="M281.876,-544.181C246.54,-531.317 200.497,-514.554 163.099,-500.938"/>
<polygon fill="black" stroke="black" points="163.887,-497.501 153.293,-497.369 161.493,-504.078 163.887,-497.501"/>
</g>
<!-- node10 -->
<g id="node11" class="node"><title>node10</title>
<ellipse fill="none" stroke="black" cx="337.167" cy="-475.571" rx="127.059" ry="26.7407"/>
<text text-anchor="middle" x="337.167" y="-479.371" font-family="Times,serif" font-size="14.00">NumberLiteral</text>
<text text-anchor="middle" x="337.167" y="-464.371" font-family="Times,serif" font-size="14.00">(Expression) Value: 3.000000</text>
</g>
<!-- node8&#45;&gt;node10 -->
<g id="edge10" class="edge"><title>node8&#45;&gt;node10</title>
<path fill="none" stroke="black" d="M337.167,-537.986C337.167,-530.019 337.167,-521.128 337.167,-512.64"/>
<polygon fill="black" stroke="black" points="340.667,-512.575 337.167,-502.575 333.667,-512.575 340.667,-512.575"/>
</g>
<!-- node12 -->
<g id="node13" class="node"><title>node12</title>
<ellipse fill="none" stroke="black" cx="539.167" cy="-475.571" rx="56.6372" ry="26.7407"/>
<text text-anchor="middle" x="539.167" y="-479.371" font-family="Times,serif" font-size="14.00">Return</text>
<text text-anchor="middle" x="539.167" y="-464.371" font-family="Times,serif" font-size="14.00">(Statement)</text>
</g>
<!-- node11&#45;&gt;node12 -->
<g id="edge12" class="edge"><title>node11&#45;&gt;node12</title>
<path fill="none" stroke="black" d="M539.167,-537.986C539.167,-530.019 539.167,-521.128 539.167,-512.64"/>
<polygon fill="black" stroke="black" points="542.667,-512.575 539.167,-502.575 535.667,-512.575 542.667,-512.575"/>
</g>
<!-- node13 -->
<g id="node14" class="node"><title>node13</title>
<ellipse fill="none" stroke="black" cx="530.167" cy="-385.831" rx="60.623" ry="26.7407"/>
<text text-anchor="middle" x="530.167" y="-389.631" font-family="Times,serif" font-size="14.00">ExprList</text>
<text text-anchor="middle" x="530.167" y="-374.631" font-family="Times,serif" font-size="14.00">(Expression)</text>
</g>
<!-- node12&#45;&gt;node13 -->
<g id="edge13" class="edge"><title>node12&#45;&gt;node13</title>
<path fill="none" stroke="black" d="M536.515,-448.72C535.689,-440.67 534.763,-431.641 533.879,-423.019"/>
<polygon fill="black" stroke="black" points="537.333,-422.39 532.83,-412.799 530.369,-423.104 537.333,-422.39"/>
</g>
<!-- node14 -->
<g id="node15" class="node"><title>node14</title>
<ellipse fill="none" stroke="black" cx="528.167" cy="-296.09" rx="127.059" ry="26.7407"/>
<text text-anchor="middle" x="528.167" y="-299.89" font-family="Times,serif" font-size="14.00">NumberLiteral</text>
<text text-anchor="middle" x="528.167" y="-284.89" font-family="Times,serif" font-size="14.00">(Expression) Value: 1.000000</text>
</g>
<!-- node13&#45;&gt;node14 -->
<g id="edge14" class="edge"><title>node13&#45;&gt;node14</title>
<path fill="none" stroke="black" d="M529.566,-358.506C529.385,-350.539 529.182,-341.648 528.989,-333.159"/>
<polygon fill="black" stroke="black" points="532.486,-333.012 528.759,-323.094 525.488,-333.172 532.486,-333.012"/>
</g>
<!-- node16 -->
<g id="node17" class="node"><title>node16</title>
<ellipse fill="none" stroke="black" cx="711.167" cy="-565.311" rx="56.6372" ry="26.7407"/>
<text text-anchor="middle" x="711.167" y="-569.111" font-family="Times,serif" font-size="14.00">Return</text>
<text text-anchor="middle" x="711.167" y="-554.111" font-family="Times,serif" font-size="14.00">(Statement)</text>
</g>
<!-- node15&#45;&gt;node16 -->
<g id="edge16" class="edge"><title>node15&#45;&gt;node16</title>
<path fill="none" stroke="black" d="M684.158,-628.673C687.867,-620.108 692.075,-610.393 696.046,-601.223"/>
<polygon fill="black" stroke="black" points="699.306,-602.503 700.068,-591.936 692.882,-599.721 699.306,-602.503"/>
</g>
<!-- node17 -->
<g id="node18" class="node"><title>node17</title>
<ellipse fill="none" stroke="black" cx="730.167" cy="-475.571" rx="60.623" ry="26.7407"/>
<text text-anchor="middle" x="730.167" y="-479.371" font-family="Times,serif" font-size="14.00">ExprList</text>
<text text-anchor="middle" x="730.167" y="-464.371" font-family="Times,serif" font-size="14.00">(Expression)</text>
</g>
<!-- node16&#45;&gt;node17 -->
<g id="edge17" class="edge"><title>node16&#45;&gt;node17</title>
<path fill="none" stroke="black" d="M716.764,-538.46C718.527,-530.322 720.506,-521.182 722.391,-512.475"/>
<polygon fill="black" stroke="black" points="725.847,-513.054 724.543,-502.539 719.006,-511.572 725.847,-513.054"/>
</g>
<!-- node18 -->
<g id="node19" class="node"><title>node18</title>
<ellipse fill="none" stroke="black" cx="735.167" cy="-385.831" rx="92.7622" ry="26.7407"/>
<text text-anchor="middle" x="735.167" y="-389.631" font-family="Times,serif" font-size="14.00">NumOperator</text>
<text text-anchor="middle" x="735.167" y="-374.631" font-family="Times,serif" font-size="14.00">(Expression) Type: 0</text>
</g>
<!-- node17&#45;&gt;node18 -->
<g id="edge18" class="edge"><title>node17&#45;&gt;node18</title>
<path fill="none" stroke="black" d="M731.667,-448.246C732.121,-440.279 732.627,-431.388 733.111,-422.9"/>
<polygon fill="black" stroke="black" points="736.61,-423.017 733.685,-412.835 729.621,-422.619 736.61,-423.017"/>
</g>
<!-- node19 -->
<g id="node20" class="node"><title>node19</title>
<ellipse fill="none" stroke="black" cx="735.167" cy="-296.09" rx="61.5366" ry="26.7407"/>
<text text-anchor="middle" x="735.167" y="-299.89" font-family="Times,serif" font-size="14.00">FunctionCall</text>
<text text-anchor="middle" x="735.167" y="-284.89" font-family="Times,serif" font-size="14.00">(Expression)</text>
</g>
<!-- node18&#45;&gt;node19 -->
<g id="edge19" class="edge"><title>node18&#45;&gt;node19</title>
<path fill="none" stroke="black" d="M735.167,-358.506C735.167,-350.539 735.167,-341.648 735.167,-333.159"/>
<polygon fill="black" stroke="black" points="738.667,-333.094 735.167,-323.094 731.667,-333.094 738.667,-333.094"/>
</g>
<!-- node25 -->
<g id="node26" class="node"><title>node25</title>
<ellipse fill="none" stroke="black" cx="940.167" cy="-296.09" rx="61.5366" ry="26.7407"/>
<text text-anchor="middle" x="940.167" y="-299.89" font-family="Times,serif" font-size="14.00">FunctionCall</text>
<text text-anchor="middle" x="940.167" y="-284.89" font-family="Times,serif" font-size="14.00">(Expression)</text>
</g>
<!-- node18&#45;&gt;node25 -->
<g id="edge25" class="edge"><title>node18&#45;&gt;node25</title>
<path fill="none" stroke="black" d="M785.578,-363.254C816.627,-349.965 856.362,-332.959 887.772,-319.515"/>
<polygon fill="black" stroke="black" points="889.417,-322.618 897.233,-315.466 886.663,-316.183 889.417,-322.618"/>
</g>
<!-- node20 -->
<g id="node21" class="node"><title>node20</title>
<ellipse fill="none" stroke="black" cx="530.167" cy="-206.35" rx="126.644" ry="26.7407"/>
<text text-anchor="middle" x="530.167" y="-210.15" font-family="Times,serif" font-size="14.00">VarName</text>
<text text-anchor="middle" x="530.167" y="-195.15" font-family="Times,serif" font-size="14.00">(Expression) Value: fibonacci</text>
</g>
<!-- node19&#45;&gt;node20 -->
<g id="edge20" class="edge"><title>node19&#45;&gt;node20</title>
<path fill="none" stroke="black" d="M692.192,-276.697C663.767,-264.531 625.997,-248.366 594.074,-234.703"/>
<polygon fill="black" stroke="black" points="595.377,-231.453 584.806,-230.736 592.622,-237.889 595.377,-231.453"/>
</g>
<!-- node21 -->
<g id="node22" class="node"><title>node21</title>
<ellipse fill="none" stroke="black" cx="735.167" cy="-206.35" rx="60.623" ry="26.7407"/>
<text text-anchor="middle" x="735.167" y="-210.15" font-family="Times,serif" font-size="14.00">ExprList</text>
<text text-anchor="middle" x="735.167" y="-195.15" font-family="Times,serif" font-size="14.00">(Expression)</text>
</g>
<!-- node19&#45;&gt;node21 -->
<g id="edge21" class="edge"><title>node19&#45;&gt;node21</title>
<path fill="none" stroke="black" d="M735.167,-268.765C735.167,-260.799 735.167,-251.908 735.167,-243.419"/>
<polygon fill="black" stroke="black" points="738.667,-243.354 735.167,-233.354 731.667,-243.354 738.667,-243.354"/>
</g>
<!-- node22 -->
<g id="node23" class="node"><title>node22</title>
<ellipse fill="none" stroke="black" cx="735.167" cy="-116.61" rx="92.7622" ry="26.7407"/>
<text text-anchor="middle" x="735.167" y="-120.41" font-family="Times,serif" font-size="14.00">NumOperator</text>
<text text-anchor="middle" x="735.167" y="-105.41" font-family="Times,serif" font-size="14.00">(Expression) Type: 1</text>
</g>
<!-- node21&#45;&gt;node22 -->
<g id="edge22" class="edge"><title>node21&#45;&gt;node22</title>
<path fill="none" stroke="black" d="M735.167,-179.025C735.167,-171.059 735.167,-162.168 735.167,-153.679"/>
<polygon fill="black" stroke="black" points="738.667,-153.614 735.167,-143.614 731.667,-153.614 738.667,-153.614"/>
</g>
<!-- node23 -->
<g id="node24" class="node"><title>node23</title>
<ellipse fill="none" stroke="black" cx="537.167" cy="-26.8701" rx="96.3333" ry="26.7407"/>
<text text-anchor="middle" x="537.167" y="-30.6701" font-family="Times,serif" font-size="14.00">VarName</text>
<text text-anchor="middle" x="537.167" y="-15.6701" font-family="Times,serif" font-size="14.00">(Expression) Value: n</text>
</g>
<!-- node22&#45;&gt;node23 -->
<g id="edge23" class="edge"><title>node22&#45;&gt;node23</title>
<path fill="none" stroke="black" d="M685.968,-93.8089C658.906,-81.8166 625.13,-66.8493 596.6,-54.2071"/>
<polygon fill="black" stroke="black" points="597.704,-50.8681 587.144,-50.0166 594.868,-57.2679 597.704,-50.8681"/>
</g>
<!-- node24 -->
<g id="node25" class="node"><title>node24</title>
<ellipse fill="none" stroke="black" cx="778.167" cy="-26.8701" rx="127.059" ry="26.7407"/>
<text text-anchor="middle" x="778.167" y="-30.6701" font-family="Times,serif" font-size="14.00">NumberLiteral</text>
<text text-anchor="middle" x="778.167" y="-15.6701" font-family="Times,serif" font-size="14.00">(Expression) Value: 1.000000</text>
</g>
<!-- node22&#45;&gt;node24 -->
<g id="edge24" class="edge"><title>node22&#45;&gt;node24</title>
<path fill="none" stroke="black" d="M747.835,-89.7598C751.954,-81.356 756.596,-71.8844 760.987,-62.9246"/>
<polygon fill="black" stroke="black" points="764.182,-64.3588 765.44,-53.8389 757.896,-61.2782 764.182,-64.3588"/>
</g>
<!-- node26 -->
<g id="node27" class="node"><title>node26</title>
<ellipse fill="none" stroke="black" cx="940.167" cy="-206.35" rx="126.644" ry="26.7407"/>
<text text-anchor="middle" x="940.167" y="-210.15" font-family="Times,serif" font-size="14.00">VarName</text>
<text text-anchor="middle" x="940.167" y="-195.15" font-family="Times,serif" font-size="14.00">(Expression) Value: fibonacci</text>
</g>
<!-- node25&#45;&gt;node26 -->
<g id="edge26" class="edge"><title>node25&#45;&gt;node26</title>
<path fill="none" stroke="black" d="M940.167,-268.765C940.167,-260.799 940.167,-251.908 940.167,-243.419"/>
<polygon fill="black" stroke="black" points="943.667,-243.354 940.167,-233.354 936.667,-243.354 943.667,-243.354"/>
</g>
<!-- node27 -->
<g id="node28" class="node"><title>node27</title>
<ellipse fill="none" stroke="black" cx="1145.17" cy="-206.35" rx="60.623" ry="26.7407"/>
<text text-anchor="middle" x="1145.17" y="-210.15" font-family="Times,serif" font-size="14.00">ExprList</text>
<text text-anchor="middle" x="1145.17" y="-195.15" font-family="Times,serif" font-size="14.00">(Expression)</text>
</g>
<!-- node25&#45;&gt;node27 -->
<g id="edge27" class="edge"><title>node25&#45;&gt;node27</title>
<path fill="none" stroke="black" d="M983.141,-276.697C1015.23,-262.964 1059.23,-244.132 1093.28,-229.559"/>
<polygon fill="black" stroke="black" points="1094.78,-232.721 1102.6,-225.569 1092.03,-226.286 1094.78,-232.721"/>
</g>
<!-- node28 -->
<g id="node29" class="node"><title>node28</title>
<ellipse fill="none" stroke="black" cx="1145.17" cy="-116.61" rx="92.7622" ry="26.7407"/>
<text text-anchor="middle" x="1145.17" y="-120.41" font-family="Times,serif" font-size="14.00">NumOperator</text>
<text text-anchor="middle" x="1145.17" y="-105.41" font-family="Times,serif" font-size="14.00">(Expression) Type: 1</text>
</g>
<!-- node27&#45;&gt;node28 -->
<g id="edge28" class="edge"><title>node27&#45;&gt;node28</title>
<path fill="none" stroke="black" d="M1145.17,-179.025C1145.17,-171.059 1145.17,-162.168 1145.17,-153.679"/>
<polygon fill="black" stroke="black" points="1148.67,-153.614 1145.17,-143.614 1141.67,-153.614 1148.67,-153.614"/>
</g>
<!-- node29 -->
<g id="node30" class="node"><title>node29</title>
<ellipse fill="none" stroke="black" cx="1061.17" cy="-26.8701" rx="96.3333" ry="26.7407"/>
<text text-anchor="middle" x="1061.17" y="-30.6701" font-family="Times,serif" font-size="14.00">VarName</text>
<text text-anchor="middle" x="1061.17" y="-15.6701" font-family="Times,serif" font-size="14.00">(Expression) Value: n</text>
</g>
<!-- node28&#45;&gt;node29 -->
<g id="edge29" class="edge"><title>node28&#45;&gt;node29</title>
<path fill="none" stroke="black" d="M1120.87,-90.2321C1111.99,-80.956 1101.82,-70.3298 1092.41,-60.5087"/>
<polygon fill="black" stroke="black" points="1094.85,-57.9941 1085.41,-53.1911 1089.8,-62.8349 1094.85,-57.9941"/>
</g>
<!-- node30 -->
<g id="node31" class="node"><title>node30</title>
<ellipse fill="none" stroke="black" cx="1302.17" cy="-26.8701" rx="127.059" ry="26.7407"/>
<text text-anchor="middle" x="1302.17" y="-30.6701" font-family="Times,serif" font-size="14.00">NumberLiteral</text>
<text text-anchor="middle" x="1302.17" y="-15.6701" font-family="Times,serif" font-size="14.00">(Expression) Value: 2.000000</text>
</g>
<!-- node28&#45;&gt;node30 -->
<g id="edge30" class="edge"><title>node28&#45;&gt;node30</title>
<path fill="none" stroke="black" d="M1186.83,-92.3278C1206.14,-81.5371 1229.29,-68.5973 1249.77,-57.1523"/>
<polygon fill="black" stroke="black" points="1251.64,-60.1151 1258.66,-52.1813 1248.23,-54.0045 1251.64,-60.1151"/>
</g>
<!-- node32 -->
<g id="node33" class="node"><title>node32</title>
<ellipse fill="none" stroke="black" cx="841.167" cy="-924.271" rx="127.059" ry="26.7407"/>
<text text-anchor="middle" x="841.167" y="-928.071" font-family="Times,serif" font-size="14.00">NumberLiteral</text>
<text text-anchor="middle" x="841.167" y="-913.071" font-family="Times,serif" font-size="14.00">(Expression) Value: 1.000000</text>
</g>
<!-- node31&#45;&gt;node32 -->
<g id="edge32" class="edge"><title>node31&#45;&gt;node32</title>
<path fill="none" stroke="black" d="M1185.53,-997.728C1117.31,-983.373 1014.71,-961.785 939.239,-945.906"/>
<polygon fill="black" stroke="black" points="939.75,-942.437 929.243,-943.803 938.308,-949.287 939.75,-942.437"/>
</g>
<!-- node33 -->
<g id="node34" class="node"><title>node33</title>
<ellipse fill="none" stroke="black" cx="1119.17" cy="-924.271" rx="132.458" ry="26.7407"/>
<text text-anchor="middle" x="1119.17" y="-928.071" font-family="Times,serif" font-size="14.00">NumberLiteral</text>
<text text-anchor="middle" x="1119.17" y="-913.071" font-family="Times,serif" font-size="14.00">(Expression) Value: 16.000000</text>
</g>
<!-- node31&#45;&gt;node33 -->
<g id="edge33" class="edge"><title>node31&#45;&gt;node33</title>
<path fill="none" stroke="black" d="M1220.92,-989.499C1204.33,-979.029 1184.6,-966.572 1166.94,-955.428"/>
<polygon fill="black" stroke="black" points="1168.79,-952.455 1158.46,-950.077 1165.05,-958.374 1168.79,-952.455"/>
</g>
<!-- node34 -->
<g id="node35" class="node"><title>node34</title>
<ellipse fill="none" stroke="black" cx="1397.17" cy="-924.271" rx="127.059" ry="26.7407"/>
<text text-anchor="middle" x="1397.17" y="-928.071" font-family="Times,serif" font-size="14.00">NumberLiteral</text>
<text text-anchor="middle" x="1397.17" y="-913.071" font-family="Times,serif" font-size="14.00">(Expression) Value: 1.000000</text>
</g>
<!-- node31&#45;&gt;node34 -->
<g id="edge34" class="edge"><title>node31&#45;&gt;node34</title>
<path fill="none" stroke="black" d="M1295.42,-989.499C1312,-979.029 1331.74,-966.572 1349.39,-955.428"/>
<polygon fill="black" stroke="black" points="1351.28,-958.374 1357.87,-950.077 1347.54,-952.455 1351.28,-958.374"/>
</g>
<!-- node35 -->
<g id="node36" class="node"><title>node35</title>
<ellipse fill="none" stroke="black" cx="1599.17" cy="-924.271" rx="56.6372" ry="26.7407"/>
<text text-anchor="middle" x="1599.17" y="-928.071" font-family="Times,serif" font-size="14.00">Chunk</text>
<text text-anchor="middle" x="1599.17" y="-913.071" font-family="Times,serif" font-size="14.00">(Statement)</text>
</g>
<!-- node31&#45;&gt;node35 -->
<g id="edge35" class="edge"><title>node31&#45;&gt;node35</title>
<path fill="none" stroke="black" d="M1333.97,-999.189C1389.66,-988.256 1466.84,-971.47 1533.17,-951.141 1538.04,-949.647 1543.07,-947.958 1548.07,-946.178"/>
<polygon fill="black" stroke="black" points="1549.43,-949.406 1557.61,-942.667 1547.01,-942.836 1549.43,-949.406"/>
</g>
<!-- node36 -->
<g id="node37" class="node"><title>node36</title>
<ellipse fill="none" stroke="black" cx="1565.17" cy="-834.531" rx="69.0935" ry="26.7407"/>
<text text-anchor="middle" x="1565.17" y="-838.331" font-family="Times,serif" font-size="14.00">ExprStatement</text>
<text text-anchor="middle" x="1565.17" y="-823.331" font-family="Times,serif" font-size="14.00">(Statement)</text>
</g>
<!-- node35&#45;&gt;node36 -->
<g id="edge36" class="edge"><title>node35&#45;&gt;node36</title>
<path fill="none" stroke="black" d="M1589.15,-897.421C1585.9,-889.031 1582.23,-879.578 1578.77,-870.631"/>
<polygon fill="black" stroke="black" points="1581.99,-869.256 1575.11,-861.197 1575.46,-871.786 1581.99,-869.256"/>
</g>
<!-- node37 -->
<g id="node38" class="node"><title>node37</title>
<ellipse fill="none" stroke="black" cx="1497.17" cy="-744.791" rx="61.5366" ry="26.7407"/>
<text text-anchor="middle" x="1497.17" y="-748.591" font-family="Times,serif" font-size="14.00">FunctionCall</text>
<text text-anchor="middle" x="1497.17" y="-733.591" font-family="Times,serif" font-size="14.00">(Expression)</text>
</g>
<!-- node36&#45;&gt;node37 -->
<g id="edge37" class="edge"><title>node36&#45;&gt;node37</title>
<path fill="none" stroke="black" d="M1545.86,-808.623C1538.62,-799.282 1530.28,-788.52 1522.57,-778.573"/>
<polygon fill="black" stroke="black" points="1525.18,-776.218 1516.28,-770.458 1519.64,-780.506 1525.18,-776.218"/>
</g>
<!-- node38 -->
<g id="node39" class="node"><title>node38</title>
<ellipse fill="none" stroke="black" cx="1402.17" cy="-655.051" rx="60.623" ry="26.7407"/>
<text text-anchor="middle" x="1402.17" y="-658.851" font-family="Times,serif" font-size="14.00">VarIndex</text>
<text text-anchor="middle" x="1402.17" y="-643.851" font-family="Times,serif" font-size="14.00">(Expression)</text>
</g>
<!-- node37&#45;&gt;node38 -->
<g id="edge38" class="edge"><title>node37&#45;&gt;node38</title>
<path fill="none" stroke="black" d="M1471.71,-720.278C1460.53,-709.952 1447.25,-697.691 1435.31,-686.664"/>
<polygon fill="black" stroke="black" points="1437.42,-683.842 1427.7,-679.629 1432.67,-688.985 1437.42,-683.842"/>
</g>
<!-- node41 -->
<g id="node42" class="node"><title>node41</title>
<ellipse fill="none" stroke="black" cx="1593.17" cy="-655.051" rx="60.623" ry="26.7407"/>
<text text-anchor="middle" x="1593.17" y="-658.851" font-family="Times,serif" font-size="14.00">ExprList</text>
<text text-anchor="middle" x="1593.17" y="-643.851" font-family="Times,serif" font-size="14.00">(Expression)</text>
</g>
<!-- node37&#45;&gt;node41 -->
<g id="edge41" class="edge"><title>node37&#45;&gt;node41</title>
<path fill="none" stroke="black" d="M1522.89,-720.278C1534.19,-709.952 1547.61,-697.691 1559.67,-686.664"/>
<polygon fill="black" stroke="black" points="1562.35,-688.958 1567.37,-679.629 1557.63,-683.791 1562.35,-688.958"/>
</g>
<!-- node39 -->
<g id="node40" class="node"><title>node39</title>
<ellipse fill="none" stroke="black" cx="1174.17" cy="-565.311" rx="98.9899" ry="26.7407"/>
<text text-anchor="middle" x="1174.17" y="-569.111" font-family="Times,serif" font-size="14.00">VarName</text>
<text text-anchor="middle" x="1174.17" y="-554.111" font-family="Times,serif" font-size="14.00">(Expression) Value: io</text>
</g>
<!-- node38&#45;&gt;node39 -->
<g id="edge39" class="edge"><title>node38&#45;&gt;node39</title>
<path fill="none" stroke="black" d="M1357.39,-636.821C1323.68,-623.847 1276.96,-605.87 1239.14,-591.315"/>
<polygon fill="black" stroke="black" points="1240.32,-588.018 1229.73,-587.693 1237.81,-594.551 1240.32,-588.018"/>
</g>
<!-- node40 -->
<g id="node41" class="node"><title>node40</title>
<ellipse fill="none" stroke="black" cx="1402.17" cy="-565.311" rx="111.032" ry="26.7407"/>
<text text-anchor="middle" x="1402.17" y="-569.111" font-family="Times,serif" font-size="14.00">StringLiteral</text>
<text text-anchor="middle" x="1402.17" y="-554.111" font-family="Times,serif" font-size="14.00">(Expression) Value: write</text>
</g>
<!-- node38&#45;&gt;node40 -->
<g id="edge40" class="edge"><title>node38&#45;&gt;node40</title>
<path fill="none" stroke="black" d="M1402.17,-627.726C1402.17,-619.759 1402.17,-610.868 1402.17,-602.38"/>
<polygon fill="black" stroke="black" points="1405.67,-602.315 1402.17,-592.315 1398.67,-602.315 1405.67,-602.315"/>
</g>
<!-- node42 -->
<g id="node43" class="node"><title>node42</title>
<ellipse fill="none" stroke="black" cx="1593.17" cy="-565.311" rx="61.5366" ry="26.7407"/>
<text text-anchor="middle" x="1593.17" y="-569.111" font-family="Times,serif" font-size="14.00">FunctionCall</text>
<text text-anchor="middle" x="1593.17" y="-554.111" font-family="Times,serif" font-size="14.00">(Expression)</text>
</g>
<!-- node41&#45;&gt;node42 -->
<g id="edge42" class="edge"><title>node41&#45;&gt;node42</title>
<path fill="none" stroke="black" d="M1593.17,-627.726C1593.17,-619.759 1593.17,-610.868 1593.17,-602.38"/>
<polygon fill="black" stroke="black" points="1596.67,-602.315 1593.17,-592.315 1589.67,-602.315 1596.67,-602.315"/>
</g>
<!-- node46 -->
<g id="node47" class="node"><title>node46</title>
<ellipse fill="none" stroke="black" cx="1769.17" cy="-565.311" rx="96.7474" ry="26.7407"/>
<text text-anchor="middle" x="1769.17" y="-569.111" font-family="Times,serif" font-size="14.00">StringLiteral</text>
<text text-anchor="middle" x="1769.17" y="-554.111" font-family="Times,serif" font-size="14.00">(Expression) Value: , </text>
</g>
<!-- node41&#45;&gt;node46 -->
<g id="edge46" class="edge"><title>node41&#45;&gt;node46</title>
<path fill="none" stroke="black" d="M1632.66,-634.36C1656.78,-622.338 1687.96,-606.793 1714.43,-593.596"/>
<polygon fill="black" stroke="black" points="1716.19,-596.629 1723.58,-589.035 1713.07,-590.365 1716.19,-596.629"/>
</g>
<!-- node43 -->
<g id="node44" class="node"><title>node43</title>
<ellipse fill="none" stroke="black" cx="1490.17" cy="-475.571" rx="126.644" ry="26.7407"/>
<text text-anchor="middle" x="1490.17" y="-479.371" font-family="Times,serif" font-size="14.00">VarName</text>
<text text-anchor="middle" x="1490.17" y="-464.371" font-family="Times,serif" font-size="14.00">(Expression) Value: fibonacci</text>
</g>
<!-- node42&#45;&gt;node43 -->
<g id="edge43" class="edge"><title>node42&#45;&gt;node43</title>
<path fill="none" stroke="black" d="M1565.83,-541.028C1554.09,-531.022 1540.17,-519.168 1527.5,-508.371"/>
<polygon fill="black" stroke="black" points="1529.68,-505.632 1519.8,-501.812 1525.14,-510.961 1529.68,-505.632"/>
</g>
<!-- node44 -->
<g id="node45" class="node"><title>node44</title>
<ellipse fill="none" stroke="black" cx="1695.17" cy="-475.571" rx="60.623" ry="26.7407"/>
<text text-anchor="middle" x="1695.17" y="-479.371" font-family="Times,serif" font-size="14.00">ExprList</text>
<text text-anchor="middle" x="1695.17" y="-464.371" font-family="Times,serif" font-size="14.00">(Expression)</text>
</g>
<!-- node42&#45;&gt;node44 -->
<g id="edge44" class="edge"><title>node42&#45;&gt;node44</title>
<path fill="none" stroke="black" d="M1620.23,-541.028C1632.45,-530.518 1647.04,-517.968 1660.09,-506.747"/>
<polygon fill="black" stroke="black" points="1662.68,-509.137 1667.97,-499.962 1658.11,-503.83 1662.68,-509.137"/>
</g>
<!-- node45 -->
<g id="node46" class="node"><title>node45</title>
<ellipse fill="none" stroke="black" cx="1695.17" cy="-385.831" rx="96.3333" ry="26.7407"/>
<text text-anchor="middle" x="1695.17" y="-389.631" font-family="Times,serif" font-size="14.00">VarName</text>
<text text-anchor="middle" x="1695.17" y="-374.631" font-family="Times,serif" font-size="14.00">(Expression) Value: n</text>
</g>
<!-- node44&#45;&gt;node45 -->
<g id="edge45" class="edge"><title>node44&#45;&gt;node45</title>
<path fill="none" stroke="black" d="M1695.17,-448.246C1695.17,-440.279 1695.17,-431.388 1695.17,-422.9"/>
<polygon fill="black" stroke="black" points="1698.67,-422.834 1695.17,-412.835 1691.67,-422.835 1698.67,-422.834"/>
</g>
<!-- node48 -->
<g id="node49" class="node"><title>node48</title>
<ellipse fill="none" stroke="black" cx="1870.17" cy="-924.271" rx="61.5366" ry="26.7407"/>
<text text-anchor="middle" x="1870.17" y="-928.071" font-family="Times,serif" font-size="14.00">FunctionCall</text>
<text text-anchor="middle" x="1870.17" y="-913.071" font-family="Times,serif" font-size="14.00">(Expression)</text>
</g>
<!-- node47&#45;&gt;node48 -->
<g id="edge48" class="edge"><title>node47&#45;&gt;node48</title>
<path fill="none" stroke="black" d="M1759.13,-991.097C1779.36,-979.106 1804.56,-964.165 1825.84,-951.551"/>
<polygon fill="black" stroke="black" points="1827.87,-954.412 1834.69,-946.302 1824.3,-948.391 1827.87,-954.412"/>
</g>
<!-- node49 -->
<g id="node50" class="node"><title>node49</title>
<ellipse fill="none" stroke="black" cx="1870.17" cy="-834.531" rx="60.623" ry="26.7407"/>
<text text-anchor="middle" x="1870.17" y="-838.331" font-family="Times,serif" font-size="14.00">VarIndex</text>
<text text-anchor="middle" x="1870.17" y="-823.331" font-family="Times,serif" font-size="14.00">(Expression)</text>
</g>
<!-- node48&#45;&gt;node49 -->
<g id="edge49" class="edge"><title>node48&#45;&gt;node49</title>
<path fill="none" stroke="black" d="M1870.17,-896.946C1870.17,-888.98 1870.17,-880.089 1870.17,-871.6"/>
<polygon fill="black" stroke="black" points="1873.67,-871.535 1870.17,-861.535 1866.67,-871.535 1873.67,-871.535"/>
</g>
<!-- node52 -->
<g id="node53" class="node"><title>node52</title>
<ellipse fill="none" stroke="black" cx="2088.17" cy="-834.531" rx="60.623" ry="26.7407"/>
<text text-anchor="middle" x="2088.17" y="-838.331" font-family="Times,serif" font-size="14.00">ExprList</text>
<text text-anchor="middle" x="2088.17" y="-823.331" font-family="Times,serif" font-size="14.00">(Expression)</text>
</g>
<!-- node48&#45;&gt;node52 -->
<g id="edge52" class="edge"><title>node48&#45;&gt;node52</title>
<path fill="none" stroke="black" d="M1914.28,-905.516C1949,-891.542 1997.53,-872.01 2034.5,-857.131"/>
<polygon fill="black" stroke="black" points="2036.15,-860.241 2044.12,-853.26 2033.53,-853.747 2036.15,-860.241"/>
</g>
<!-- node50 -->
<g id="node51" class="node"><title>node50</title>
<ellipse fill="none" stroke="black" cx="1676.17" cy="-744.791" rx="98.9899" ry="26.7407"/>
<text text-anchor="middle" x="1676.17" y="-748.591" font-family="Times,serif" font-size="14.00">VarName</text>
<text text-anchor="middle" x="1676.17" y="-733.591" font-family="Times,serif" font-size="14.00">(Expression) Value: io</text>
</g>
<!-- node49&#45;&gt;node50 -->
<g id="edge50" class="edge"><title>node49&#45;&gt;node50</title>
<path fill="none" stroke="black" d="M1828.55,-814.709C1801.21,-802.342 1765.03,-785.982 1734.79,-772.306"/>
<polygon fill="black" stroke="black" points="1736.17,-769.086 1725.61,-768.155 1733.28,-775.464 1736.17,-769.086"/>
</g>
<!-- node51 -->
<g id="node52" class="node"><title>node51</title>
<ellipse fill="none" stroke="black" cx="1904.17" cy="-744.791" rx="111.032" ry="26.7407"/>
<text text-anchor="middle" x="1904.17" y="-748.591" font-family="Times,serif" font-size="14.00">StringLiteral</text>
<text text-anchor="middle" x="1904.17" y="-733.591" font-family="Times,serif" font-size="14.00">(Expression) Value: write</text>
</g>
<!-- node49&#45;&gt;node51 -->
<g id="edge51" class="edge"><title>node49&#45;&gt;node51</title>
<path fill="none" stroke="black" d="M1880.18,-807.681C1883.41,-799.365 1887.03,-790.005 1890.47,-781.129"/>
<polygon fill="black" stroke="black" points="1893.75,-782.349 1894.1,-771.76 1887.23,-779.82 1893.75,-782.349"/>
</g>
<!-- node53 -->
<g id="node54" class="node"><title>node53</title>
<ellipse fill="none" stroke="black" cx="2132.17" cy="-744.791" rx="98.9899" ry="26.7407"/>
<text text-anchor="middle" x="2132.17" y="-748.591" font-family="Times,serif" font-size="14.00">StringLiteral</text>
<text text-anchor="middle" x="2132.17" y="-733.591" font-family="Times,serif" font-size="14.00">(Expression) Value: ...</text>
</g>
<!-- node52&#45;&gt;node53 -->
<g id="edge53" class="edge"><title>node52&#45;&gt;node53</title>
<path fill="none" stroke="black" d="M2100.89,-808.153C2105.15,-799.664 2109.97,-790.044 2114.54,-780.945"/>
<polygon fill="black" stroke="black" points="2117.81,-782.229 2119.16,-771.721 2111.55,-779.091 2117.81,-782.229"/>
</g>
</g>
</svg>
